<?xml version="1.0" standalone="no"?>
<!DOCTYPE svg PUBLIC "-//W3C//DTD SVG 1.1//EN" "http://www.w3.org/Graphics/SVG/1.1/DTD/svg11.dtd" >
<svg xmlns="http://www.w3.org/2000/svg">
<metadata></metadata>
<defs>
<font id="mhrglight" horiz-adv-x="911" >
<font-face units-per-em="2048" ascent="1638" descent="-410" />
<missing-glyph horiz-adv-x="382" />
<glyph unicode="&#xfb01;" horiz-adv-x="1034" d="M61 842v147h109l-12 80q0 163 65 241.5t228 78.5q59 0 108.5 -8.5t69.5 -16.5l20 -8v-135q-62 22 -166 22q-81 -1 -109 -42.5t-28 -135.5l-12 -76h557v-989h-197v842h-358l12 -109v-733h-188v733l10 109h-109zM690 1178v180h201v-180h-201z" />
<glyph unicode="&#xfb02;" horiz-adv-x="1093" d="M61 842v147h109l-12 80q0 81 14.5 137.5t49.5 99t97 63t154 20.5q39 0 80.5 -5.5t63.5 -11.5l22 -6v-135q-74 12 -131 12q-91 -1 -126.5 -44t-35.5 -134l-12 -76h352v369h188v-1065q0 -160 140 -160l96 4v-139q-52 -21 -154 -21q-152 0 -211 69.5t-59 227.5v568h-350 l12 -109v-733h-188v733l10 109h-109z" />
<glyph horiz-adv-x="0" />
<glyph horiz-adv-x="682" />
<glyph unicode=" "  horiz-adv-x="382" />
<glyph unicode="&#x09;" horiz-adv-x="382" />
<glyph unicode="&#xa0;" horiz-adv-x="382" />
<glyph unicode="!" horiz-adv-x="454" d="M123 0v188h209v-188h-209zM129 772v504h197v-504l-17 -434h-166z" />
<glyph unicode="&#x22;" horiz-adv-x="565" d="M39 883l33 407h192l-119 -407h-106zM295 883l33 407h192l-119 -407h-106z" />
<glyph unicode="#" horiz-adv-x="1316" d="M25 272l41 154h84l159 -6l4 8l31 170l62 174l2 6l-160 -4h-92l43 152h88l157 -6l5 10l28 172l25 90h180l-23 -92l-57 -170l-4 -10l154 6l151 -6l4 10l29 172l25 90h182l-23 -92l-59 -170l-2 -10l160 6h90l-45 -152h-86l-160 4l-2 -6l-33 -178l-57 -166l-4 -8l159 6h90 l-41 -154h-88l-157 7l-2 -9l-25 -155l-29 -115h-182l29 117l53 153l2 9l-156 -7l-149 7l-2 -9l-27 -155l-30 -115h-179l29 117l53 153l2 9l-159 -7h-88zM461 420l157 6l150 -6l4 8l33 170l59 174l2 6l-153 -4h-2l-152 4l-2 -6l-35 -174l-57 -170z" />
<glyph unicode="$" horiz-adv-x="780" d="M41 954q0 133 76 216t205 114l-7 160h193l-6 -146q134 -5 215 -30v-160q-103 27 -246 27q-119 0 -174 -49t-55 -125q0 -99 127 -185q23 -16 67.5 -44.5t68 -44.5t60.5 -43.5t58 -48.5t46.5 -52.5t38.5 -62t22 -69.5t9 -83q0 -130 -63.5 -214.5t-181.5 -115.5l10 -199 h-191l6 176q-72 2 -134.5 12t-89.5 18.5t-27 10.5v164q98 -37 241 -37q111 0 170.5 49t59.5 130q0 67 -33.5 115t-95.5 89q-28 19 -75.5 49t-76.5 49t-67 47.5t-61.5 55t-45.5 61t-32.5 76.5t-10.5 90z" />
<glyph unicode="%" horiz-adv-x="1572" d="M88 1020q0 164 74.5 249t251.5 85q170 0 244.5 -83t74.5 -243q0 -168 -74 -252t-247 -84q-172 0 -248 79.5t-76 248.5zM156 74l587 655l517 637l133 -106l-547 -619l-553 -682zM256 1016q0 -116 35.5 -156.5t122.5 -40.5q79 0 113 43.5t34 167.5q0 112 -34 154.5 t-115 42.5q-85 0 -120.5 -46t-35.5 -165zM840 305q0 164 74.5 249t250.5 85q172 0 247 -83t75 -243q0 -168 -75.5 -252t-248.5 -84q-171 0 -247 79t-76 249zM1008 301q0 -115 36.5 -156t120.5 -41q80 0 114 43t34 166q0 113 -35.5 157t-114.5 44q-81 0 -118 -46.5 t-37 -166.5z" />
<glyph unicode="&#x26;" horiz-adv-x="1142" d="M74 291q-1 59 16.5 111.5t52 97t72.5 79t90 70.5q-77 81 -114.5 154.5t-36.5 167.5q2 139 102 228t256 89q172 0 261 -80t87 -213q0 -40 -11 -76.5t-35.5 -70t-48.5 -59.5t-65.5 -57t-69 -49.5t-75.5 -49.5l264 -268l213 247l111 -106l-215 -248l178 -176l-113 -117 l-180 178q-92 -85 -185 -126.5t-210 -41.5q-69 0 -129.5 19t-109 56.5t-77 99.5t-28.5 141zM268 301q0 -77 46.5 -121.5t127.5 -44.5q141 0 263 115l-285 287q-73 -53 -112.5 -109t-39.5 -127zM338 969q0 -69 25.5 -119t78.5 -107q46 29 70.5 45t60 43.5t53.5 49.5t31.5 52 t14.5 62q0 65 -43 104.5t-117 39.5q-77 0 -124.5 -47t-49.5 -123z" />
<glyph unicode="'" horiz-adv-x="303" d="M39 883l33 407h192l-119 -407h-106z" />
<glyph unicode="(" horiz-adv-x="538" d="M100 535q0 92 12.5 182.5t29.5 160t47.5 145.5t52 121.5t59 106t52.5 83t47 66.5l4.5 6t3.5 5.5t4 5.5l96 -71q-9 -13 -24.5 -37t-54.5 -105t-69 -169t-54.5 -224.5t-24.5 -275.5q0 -141 22 -284t53.5 -246.5t63.5 -187.5t54 -127l22 -42l-101 -70q-30 41 -64 97.5 t-76.5 151t-75.5 197.5t-56 239t-23 272z" />
<glyph unicode=")" horiz-adv-x="538" d="M31 1346l98 71q89 -128 124 -189q187 -326 187 -693q0 -136 -23 -272t-56 -239t-75.5 -197.5t-76.5 -151t-64 -97.5l-100 70q9 16 23 45t51 122.5t65 191t51 242.5t23 286q0 139 -23.5 274t-57 228t-66.5 166t-57 108z" />
<glyph unicode="*" horiz-adv-x="503" d="M-12 1196.5q-2 18.5 6 36.5q10 29 29.5 48.5t34.5 24.5l14 5l153 -111l-78 172q5 6 14 15t39 23.5t62 14.5q30 0 58 -13.5t40 -26.5l13 -13l-76 -176l152 117q6 -2 15.5 -6t29 -24.5t28.5 -49.5q9 -33 4.5 -57.5t-15.5 -37.5l-11 -14l-185 2l148 -96q2 -8 3 -20 t-9.5 -41.5t-36.5 -48.5q-23 -16 -50 -16t-43 8l-16 8l-53 167l-47 -167q-2 -2 -6.5 -4t-18 -6.5t-27 -6t-31.5 2.5t-34 14q-24 18 -32.5 46t-4.5 47l4 19l140 101l-181 -9l-5 5t-11 14t-11 23t-5 30.5z" />
<glyph unicode="+" horiz-adv-x="1007" d="M82 463v155h182l166 -8l10 8l-8 170v197h158v-194l-8 -173l12 -8l164 8h180v-155h-182l-164 10l-10 -8l8 -174v-207h-158v211l6 170l-8 6l-154 -8h-194z" />
<glyph unicode="," horiz-adv-x="401" d="M27 -281l69 281v188h207v-188l-176 -281h-100z" />
<glyph unicode="-" horiz-adv-x="835" d="M92 455v159h651v-159h-651z" />
<glyph unicode="." horiz-adv-x="403" d="M98 0v188h209v-188h-209z" />
<glyph unicode="/" horiz-adv-x="612" d="M12 -367l434 1725h177l-435 -1725h-176z" />
<glyph unicode="0" horiz-adv-x="1032" d="M90 635q0 362 98 513.5t334 151.5q149 0 239.5 -63.5t135.5 -210t45 -391.5q0 -351 -102.5 -505.5t-331.5 -154.5q-215 0 -316.5 153t-101.5 507zM293 635q0 -272 46.5 -384t176.5 -112q129 0 176 112.5t47 383.5q0 278 -46.5 390t-176.5 112q-56 0 -94.5 -18.5t-64 -54 t-39.5 -98.5t-19.5 -140t-5.5 -191z" />
<glyph unicode="1" horiz-adv-x="813" d="M51 1040l23 105l282 131h172v-1008l-12 -112h277v-156h-732v156h281l-10 114v674l18 141v15l-209 -92z" />
<glyph unicode="2" horiz-adv-x="905" d="M82 0v156q285 326 402.5 506.5t117.5 304.5q0 166 -221 166q-70 0 -138 -9.5t-101 -19.5l-33 -10v159q12 5 36 13t102.5 21t164.5 13q393 0 393 -299q0 -44 -8 -87.5t-27.5 -92t-40.5 -90.5t-61 -100t-73.5 -103.5t-92.5 -117t-104 -124t-122 -141.5l117 11h420v-156 h-731z" />
<glyph unicode="3" horiz-adv-x="909" d="M86 -25v166q524 0 524 295q0 90 -68.5 141.5t-189.5 51.5l-104 -6l-4 149l110 8q106 6 169 56.5t63 134.5q0 80 -60 121t-168 41q-58 0 -122 -10.5t-99 -20.5l-35 -10v165q11 5 33 12t101 19t172 12q175 0 280 -75t105 -217q0 -99 -56.5 -175t-165.5 -104v-6 q115 -17 180.5 -93t65.5 -194q0 -221 -181 -341t-550 -120z" />
<glyph unicode="4" horiz-adv-x="940" d="M16 182v135l557 977h187v-837l-10 -117h149v-158h-149l10 -133v-86h-195v86l10 133h-559zM186 336h394l-11 106v469l21 127h-8l-70 -155l-256 -451z" />
<glyph unicode="5" horiz-adv-x="899" d="M109 -23v162q111 2 199.5 20.5t158 56t107.5 101.5t38 150q0 144 -118 205.5t-310 29.5l-65 43l31 531h618v-152h-305l-148 6l2 -83l-6 -121l-16 -86q81 8 155.5 3.5t139.5 -32t113.5 -70.5t76 -110.5t27.5 -151.5q0 -237 -183.5 -369.5t-514.5 -132.5z" />
<glyph unicode="6" horiz-adv-x="987" d="M90 471q0 150 27.5 270.5t79.5 215t137 171.5t191.5 136.5t250.5 113.5l74 -137q-124 -53 -208.5 -99t-153 -100t-113 -117t-74.5 -143q6 9 20 22.5t43 34.5t75.5 35.5t99.5 14.5q81 0 143 -20.5t102.5 -57t66 -92.5t36 -122t10.5 -151q0 -471 -401 -471q-406 0 -406 496 zM283 444q0 -59 4.5 -103t18 -87t36.5 -70.5t61 -44t91 -16.5q55 0 94.5 16.5t63 44t37 71t18 87.5t4.5 104q0 74 -9 126t-31 95t-64.5 64t-106.5 21q-52 0 -90.5 -15.5t-62.5 -41.5t-38.5 -66t-20 -84t-5.5 -101z" />
<glyph unicode="7" horiz-adv-x="802" d="M41 1124v152h752v-129l-428 -1147h-209l383 981l67 143h-565z" />
<glyph unicode="8" horiz-adv-x="1001" d="M92 317q0 67 26 127.5t67 101.5t83 69t82 42q-104 53 -165.5 136.5t-61.5 197.5q0 133 98.5 221t278.5 88q182 0 280.5 -85t98.5 -224q0 -62 -25.5 -119.5t-66 -97.5t-75 -65.5t-65.5 -40.5q122 -61 192 -140t70 -198q0 -70 -25 -132t-74 -112.5t-131 -80.5t-187 -30 q-198 0 -299 92t-101 250zM274 330q0 -90 57 -145.5t165 -55.5q104 0 166.5 56.5t62.5 144.5q0 36 -15 68t-35.5 55t-57 48.5t-64.5 40.5t-74 38q-33 -14 -64.5 -33.5t-65.5 -49.5t-54.5 -73.5t-20.5 -93.5zM307 981q0 -81 56 -140t151 -106q66 30 126 96t60 148 q0 88 -55 132t-145 44q-86 0 -139.5 -47.5t-53.5 -126.5z" />
<glyph unicode="9" horiz-adv-x="987" d="M90 829q0 471 402 471q93 0 164.5 -26t116.5 -70t73.5 -108.5t39.5 -135t11 -155.5q0 -150 -27.5 -270.5t-79.5 -215t-137 -171.5t-191.5 -136.5t-250.5 -113.5l-74 137q244 104 366.5 203.5t182.5 255.5q-89 -107 -237 -107q-194 0 -276.5 113t-82.5 329zM276 829 q0 -152 44.5 -228.5t166.5 -76.5q65 0 109 22t67 65.5t32.5 95.5t9.5 124q0 75 -8 127.5t-29.5 99.5t-65 71t-108.5 24q-55 0 -95 -17t-63.5 -44t-37 -70.5t-18 -88t-4.5 -104.5z" />
<glyph unicode=":" horiz-adv-x="403" d="M98 0v188h209v-188h-209zM98 801v188h209v-188h-209z" />
<glyph unicode=";" horiz-adv-x="419" d="M47 -281l70 281v188h207v-188l-179 -281h-98zM117 801v188h207v-188h-207z" />
<glyph unicode="&#x3c;" horiz-adv-x="727" d="M16 461v74l541 485l105 -127l-447 -397l447 -398l-105 -127z" />
<glyph unicode="=" horiz-adv-x="929" d="M92 283v147h746v-147h-746zM92 623v149h746v-149h-746z" />
<glyph unicode="&#x3e;" horiz-adv-x="727" d="M68 98l444 398l-444 397l104 127l541 -488v-71l-541 -490z" />
<glyph unicode="?" horiz-adv-x="538" d="M6 1094v161q7 2 40 11t60 15.5t73.5 12.5t94.5 6q166 -2 258.5 -70t92.5 -196q0 -53 -17 -101.5t-44 -85t-60 -70t-66 -63t-60 -58t-44 -61t-17 -65.5t17.5 -54.5t62.5 -41.5l-106 -115q-168 72 -168 213q0 42 16 81.5t42 71.5t57 63t62.5 61t57.5 60t42 64.5t16 70.5 q0 60 -43 94.5t-133 34.5q-59 0 -117.5 -9.5t-87.5 -19.5zM158 0v188h209v-188h-209z" />
<glyph unicode="@" horiz-adv-x="1624" d="M92 432q0 390 177.5 560.5t549.5 170.5q175 0 304 -34.5t222.5 -110t140 -200t46.5 -298.5q0 -240 -90 -365.5t-240 -125.5q-91 0 -142 37.5t-73 113.5h-8q-3 -6 -9 -15.5t-28.5 -34t-49 -43.5t-70 -34.5t-91.5 -15.5q-142 0 -221.5 100.5t-79.5 298.5q0 71 10.5 131.5 t35 114t61.5 91.5t92 59.5t125 21.5q43 0 82.5 -11.5t65.5 -28t44.5 -32.5t27.5 -27.5t7 -11.5h8l19 82l131 2v-542q0 -119 84 -119q62 0 99.5 91t37.5 235q0 291 -129.5 416.5t-417.5 125.5q-299 0 -426 -142.5t-127 -445.5q0 -304 136.5 -445.5t408.5 -141.5q63 0 157 10 t128 18l-3 -127q-120 -32 -282 -32q-139 0 -248 23t-197.5 74.5t-147 133t-89.5 200t-31 273.5zM604 444q0 -258 168 -258q36 0 70 11t56.5 27t39.5 32.5t25 27.5l8 11l-8 67v199l8 66q-3 3 -9 8.5t-24.5 20t-38 25t-48.5 19.5t-58 9q-189 0 -189 -265z" />
<glyph unicode="A" d="M-20 0l348 1276h258l346 -1276h-199l-65 252l-11 90h-405l-8 -90l-68 -252h-196zM299 489h313l-30 93l-125 522l-127 -524z" />
<glyph unicode="B" horiz-adv-x="956" d="M143 0v1276h316q224 0 328 -79t104 -241q0 -62 -22.5 -113t-51 -79.5t-68.5 -50.5t-61 -29t-43 -12v-6q22 -3 45 -8.5t65 -26t72.5 -50t54 -85t23.5 -127.5q0 -175 -110 -272t-328 -97h-324zM324 741h127q110 0 170.5 51.5t60.5 147.5q0 99 -57.5 142.5t-175.5 43.5h-125 l16 -94v-198zM326 152h129q119 0 181 61t62 164q0 209 -245 209h-127l16 -101v-233z" />
<glyph unicode="C" horiz-adv-x="794" d="M92 639q0 178 32 306.5t94 205.5t146.5 113t196.5 36q58 0 108.5 -8t71.5 -16l21 -8v-146q-78 21 -182 21q-154 0 -220.5 -117t-66.5 -387q0 -265 67 -384.5t211 -119.5q50 0 100 5.5t75 10.5l24 5v-146q-80 -35 -209 -35q-115 0 -200 36.5t-146 115t-92 206.5t-31 306z " />
<glyph unicode="D" horiz-adv-x="1058" d="M143 0v1276h351q118 0 200.5 -22t138 -66t87 -121t44.5 -174.5t13 -239.5q0 -181 -23 -300.5t-78.5 -201t-147 -116.5t-230.5 -35h-355zM326 160h157q88 0 144.5 27.5t88.5 90t44 148t12 217.5t-11.5 216t-43.5 144.5t-88.5 86.5t-145.5 26h-157l14 -117v-720z" />
<glyph unicode="E" horiz-adv-x="860" d="M143 0v1276h625v-148h-440l14 -104v-162l-16 -110h376v-164h-376l16 -119v-197l-14 -122h440v-150h-625z" />
<glyph unicode="F" horiz-adv-x="772" d="M143 0v1276h625v-150h-438l12 -102v-162l-14 -110h374v-164h-374l14 -123v-465h-199z" />
<glyph unicode="G" horiz-adv-x="1019" d="M92 637q0 351 127 507t406 156q68 0 130 -8t89 -16l28 -8v-146q-108 21 -233 21q-194 0 -270 -118.5t-76 -385.5q0 -272 69 -387t240 -115q33 0 60 3t53.5 8.5t27.5 5.5l-8 71v224l10 88h-178v157h351v-659q-14 -7 -39.5 -17t-108.5 -26.5t-170 -16.5q-103 0 -180.5 19.5 t-141 65t-103.5 121.5t-61.5 189.5t-21.5 266.5z" />
<glyph unicode="H" horiz-adv-x="1189" d="M143 0v1276h199v-412l-16 -116h536l-12 116v412h197v-1276h-197v473l12 111h-536l16 -111v-473h-199z" />
<glyph unicode="I" horiz-adv-x="485" d="M143 0v1276h199v-1276h-199z" />
<glyph unicode="J" horiz-adv-x="604" d="M20 6v148q68 -9 111 -9q76 0 103.5 38.5t27.5 121.5v971h199v-1010q0 -155 -64.5 -220.5t-218.5 -65.5q-48 0 -87.5 6.5t-54.5 13.5z" />
<glyph unicode="K" horiz-adv-x="985" d="M143 0v1276h195v-371l-16 -160h86l350 531h229l-420 -594v-10l78 -105l346 -567h-231l-285 469l-63 117h-90l16 -170v-416h-195z" />
<glyph unicode="L" horiz-adv-x="749" d="M143 0v1276h199v-1008l-14 -116h432v-152h-617z" />
<glyph unicode="M" horiz-adv-x="1507" d="M143 0v1276h242l315 -821l54 -183h10l51 181l309 823h240v-1276h-186l4 772l14 256h-12l-84 -291l-256 -676h-174l-260 676l-86 291h-11l15 -256l4 -772h-189z" />
<glyph unicode="N" horiz-adv-x="1214" d="M143 0v1276h205l453 -793l86 -192h10l-25 278v707h199v-1276h-205l-448 782l-90 197h-11l25 -246v-733h-199z" />
<glyph unicode="O" horiz-adv-x="1089" d="M82 635q0 94 4.5 166t17 144t34.5 123.5t57.5 97.5t84.5 74t117 44t154 16q95 0 167.5 -19.5t122.5 -60.5t83 -94t51.5 -131t25.5 -160.5t7 -191.5q0 -129 -11 -225t-41.5 -183t-82 -141.5t-135.5 -86.5t-199 -32q-114 0 -196.5 32t-132.5 86t-79 141t-39 180t-10 221z M285 637q0 -91 3 -152.5t12 -122.5t26 -98.5t45 -68t69.5 -43.5t98.5 -13q49 0 87 10t66 28.5t47.5 51t32 70t19.5 93t9.5 113t2.5 136.5q0 92 -3 153.5t-12 122.5t-26.5 98t-45.5 67t-70 42.5t-99 12.5q-59 0 -102 -12.5t-72 -42.5t-46.5 -66.5t-26.5 -98.5t-12 -124 t-3 -156z" />
<glyph unicode="P" horiz-adv-x="944" d="M143 0v1276h330q241 0 346 -105.5t105 -326.5q0 -231 -112.5 -346t-352.5 -115h-131l12 -102v-281h-197zM328 532h127q146 0 204 80t58 232q0 138 -57 210t-201 72h-131l14 -96v-387z" />
<glyph unicode="Q" horiz-adv-x="1110" d="M92 635q0 93 4.5 164t17 143.5t34 124t57 98t84.5 75t117 44.5t155 16q82 0 147.5 -15.5t113 -43.5t82.5 -73t56.5 -96.5t34.5 -122t18 -142.5t5 -164q0 -122 -10 -214.5t-36.5 -176.5t-71 -139t-115.5 -89.5t-167 -39.5v-9q3 -104 63 -153q57 -47 182 -47h16v-137 q-54 -6 -102 -6q-147 0 -227 56q-106 75 -108 224l17 68v8q-87 9 -151.5 43t-105.5 87.5t-66 134t-34.5 171.5t-9.5 211zM291 637q0 -90 3.5 -152.5t12.5 -123t27 -99t46.5 -68.5t70 -43.5t98.5 -13.5q59 0 102.5 13t73 43t48 68t28 99.5t13 125.5t3.5 157q0 76 -2 128 t-8 108t-17 92t-30 70.5t-46.5 53.5t-66 30.5t-88.5 11.5q-52 0 -91.5 -11t-68 -29.5t-48.5 -52t-31.5 -70t-18 -93t-8.5 -111t-2 -133.5z" />
<glyph unicode="R" horiz-adv-x="1030" d="M143 0v1276h330q238 0 344.5 -97.5t106.5 -287.5q0 -139 -58.5 -234t-175.5 -139l72 -102l217 -416h-221l-189 369l-39 106h-202l12 -102v-373h-197zM328 625h127q140 0 201 63.5t61 202.5q0 118 -60.5 176.5t-197.5 58.5h-131l14 -96v-295z" />
<glyph unicode="S" horiz-adv-x="780" d="M41 954q0 88 34 155.5t94 108.5t136.5 61.5t167.5 20.5q78 0 139 -8t83 -16l22 -8v-160q-103 27 -232 27q-119 0 -181 -45t-62 -129q0 -91 110 -173q27 -19 78 -51t87.5 -54.5t81.5 -61t73 -77t47.5 -95t19.5 -121.5q0 -171 -106.5 -262t-292.5 -91q-79 0 -146.5 10 t-96.5 19.5t-29 11.5v164q101 -37 251 -37q98 0 159 47t61 132q0 105 -103 184q-29 23 -77.5 52.5t-88 52.5t-84 58.5t-75 72.5t-50.5 92t-20 120z" />
<glyph unicode="T" horiz-adv-x="794" d="M-20 1124v150h835v-150h-332l13 -135v-989h-197v991l12 133h-331z" />
<glyph unicode="U" horiz-adv-x="1120" d="M102 483v791h201v-813q0 -169 62.5 -244.5t191.5 -75.5t195.5 76t66.5 244v813h199v-791q0 -271 -115.5 -388.5t-349.5 -117.5q-235 0 -343 116.5t-108 389.5z" />
<glyph unicode="V" horiz-adv-x="929" d="M-20 1276h213l223 -864l51 -246l47 242l221 868h215l-356 -1276h-256z" />
<glyph unicode="W" horiz-adv-x="1380" d="M-16 1276h202l160 -838l31 -243l39 243l174 838h176l180 -836l37 -245l31 243l157 838h203l-264 -1276h-240l-153 743l-39 222l-35 -222l-154 -743h-241z" />
<glyph unicode="X" horiz-adv-x="976" d="M-10 0l381 657l-342 619h215l213 -395l47 -119l43 117l223 397h205l-352 -619l364 -657h-217l-235 424l-43 113l-46 -113l-241 -424h-215z" />
<glyph unicode="Y" horiz-adv-x="917" d="M-41 1276h215l236 -483l49 -154l45 152l241 485h213l-419 -817l12 -99v-360h-199v358l10 103z" />
<glyph unicode="Z" horiz-adv-x="907" d="M57 0v131l488 860l90 135h-561v150h760v-133l-484 -869l-86 -122h588v-152h-795z" />
<glyph unicode="[" horiz-adv-x="536" d="M102 -369v1727h334v-148h-155v-1431h155v-148h-334z" />
<glyph unicode="\" horiz-adv-x="614" d="M-10 1364h178l436 -1731h-178z" />
<glyph unicode="]" horiz-adv-x="536" d="M98 -221h156v1431h-156v148h332v-1727l-332 -2v150z" />
<glyph unicode="^" horiz-adv-x="1153" d="M82 926v182l491 293l498 -299v-180l-399 231l-92 68h-9l-88 -64z" />
<glyph unicode="_" horiz-adv-x="825" d="M-10 -90h846v-148h-846v148z" />
<glyph unicode="`" horiz-adv-x="671" d="M84 1384h209l180 -260h-147z" />
<glyph unicode="a" horiz-adv-x="991" d="M68 285q0 331 458 331h154l-12 78q0 97 -55 137.5t-191 40.5q-68 0 -137 -4.5t-103 -9.5l-35 -4v133q121 27 291 27q229 0 322.5 -75t93.5 -265v-674h-160l-12 104h-8q-117 -124 -293 -124q-151 0 -232 84.5t-81 220.5zM242 299q0 -72 46.5 -123t139.5 -51q150 0 248 98 l-10 90v88l8 91h-148q-284 0 -284 -193z" />
<glyph unicode="b" horiz-adv-x="1060" d="M143 0v1358h189l2 -363l-15 -116h9q56 61 134 98t167 37q199 0 279.5 -123.5t80.5 -386.5q0 -255 -89.5 -391t-274.5 -136q-101 0 -176 40.5t-123 93.5h-9l-16 -111h-158zM324 223q104 -104 243 -104q221 0 221 381q0 177 -50.5 265.5t-172.5 88.5q-25 0 -50 -3.5 t-44.5 -8.5t-39.5 -13t-33.5 -15t-27.5 -16.5t-21 -14.5t-16 -12l-9 -7v-10l10 -99v-344l-10 -82v-6z" />
<glyph unicode="c" horiz-adv-x="837" d="M72 489q0 101 11 177t41 144t79.5 111t128.5 68t186 25q70 0 132 -9t89 -19l27 -9v-131q-104 26 -217 26q-153 0 -216 -92t-63 -291q0 -196 62.5 -283t216.5 -87q54 0 109 7.5t84 15.5l28 8v-138q-94 -37 -260 -37q-151 0 -244.5 47t-143.5 161t-50 306z" />
<glyph unicode="d" horiz-adv-x="1060" d="M72 489q0 260 89 392.5t294 132.5q153 0 280 -127h8l-16 119l2 352h189v-1358h-160l-17 121h-8q-49 -64 -127.5 -104t-177.5 -40q-187 0 -271.5 124.5t-84.5 387.5zM272 494q0 -190 51.5 -282.5t174.5 -92.5q129 0 239 110v9l-10 81v336l10 101v10q-3 4 -9 9.5t-26.5 21 t-44 27t-62.5 21t-81 9.5q-133 0 -187.5 -89t-54.5 -271z" />
<glyph unicode="e" horiz-adv-x="983" d="M102 498q0 264 100 390t339 126q192 0 283 -91.5t91 -248.5q0 -256 -329 -256h-297l20 -90q10 -94 69.5 -152.5t178.5 -58.5q63 0 135.5 11t113.5 22l42 12v-139q-13 -5 -38 -13t-102.5 -21.5t-156.5 -13.5q-241 0 -345 118t-104 405zM293 543h242q103 0 148.5 31 t45.5 108q0 84 -44.5 137t-149.5 53q-106 0 -161 -58.5t-63 -160.5l-2 -24z" />
<glyph unicode="f" horiz-adv-x="557" d="M61 842v147h109l-12 80q0 163 65 241.5t228 78.5q59 0 108.5 -8.5t69.5 -16.5l20 -8v-135q-62 22 -166 22q-81 -1 -109 -42.5t-28 -135.5l-12 -76h239v-147h-237l12 -109v-733h-188v733l10 109h-109z" />
<glyph unicode="g" horiz-adv-x="1064" d="M74 483q3 531 387 531q90 0 161 -36t113 -85h8l37 96h142v-981q0 -208 -107.5 -296.5t-345.5 -88.5q-78 0 -166.5 9.5t-138.5 19.5l-49 10l18 139q181 -39 320 -39q155 0 217.5 54t62.5 198l12 105h-8q-50 -58 -127 -101t-176 -43q-86 0 -150.5 27t-112.5 85.5t-73 157.5 q-24 95 -24 227v11zM274 487q0 -195 54 -282.5t172 -87.5q53 0 103.5 20.5t78 41.5t59.5 52v9l-12 84v335l12 101v8q-17 31 -81 67.5t-144 36.5q-121 0 -181.5 -93.5t-60.5 -291.5z" />
<glyph unicode="h" horiz-adv-x="1124" d="M143 0v1358h191v-381l-15 -103h9q149 138 350 138q154 0 228.5 -85t74.5 -263v-664h-195v623q0 119 -43.5 173t-142.5 54q-158 0 -278 -86v-8l16 -117v-639h-195z" />
<glyph unicode="i" horiz-adv-x="487" d="M143 1178v180h201v-180h-201zM147 0v989h197v-989h-197z" />
<glyph unicode="j" horiz-adv-x="518" d="M-51 -227h94q63 0 97 35.5t34 101.5v1079h197l-4 -1077q0 -141 -70.5 -221t-216.5 -80q-37 0 -70 5t-47 10l-14 5v142zM174 1178v180h201v-180h-201z" />
<glyph unicode="k" horiz-adv-x="1005" d="M143 0v1358h189v-662l-19 -139h11l456 432h232l-467 -444v-10l76 -70l395 -465h-242l-295 338l-51 104h-8l-109 -92v-8l21 -100v-242h-189z" />
<glyph unicode="l" horiz-adv-x="546" d="M139 274v1084h189v-1065q0 -160 139 -160l96 4v-139q-51 -21 -153 -21q-152 0 -211.5 69.5t-59.5 227.5z" />
<glyph unicode="m" horiz-adv-x="1673" d="M143 0v989h158l21 -115h6q151 140 327 140q203 0 242 -152q160 152 352 152q147 0 214 -83t67 -245v-686h-195v641q0 105 -39.5 157t-130.5 52q-122 0 -243 -86q11 -99 12 -113v-651h-195v641q0 103 -40.5 156t-131.5 53q-134 0 -245 -82v-10l16 -117v-641h-195z" />
<glyph unicode="n" horiz-adv-x="1124" d="M143 0v989h158l18 -115h9q66 61 157.5 100.5t198.5 39.5q159 0 228 -87.5t69 -262.5v-664h-195v645q0 106 -41 155.5t-143 49.5q-75 0 -150 -22t-130 -62v-8l16 -117v-641h-195z" />
<glyph unicode="o" horiz-adv-x="1028" d="M72 489q0 98 12 174.5t42.5 144t80 111.5t127.5 69.5t182 25.5q101 0 177 -24t125.5 -66.5t80.5 -107.5t44 -140.5t13 -171.5q0 -125 -21.5 -218t-71 -165t-137 -109t-212.5 -37q-123 0 -209.5 33.5t-137 101t-73 160t-22.5 219.5zM272 487q0 -68 5.5 -120.5t21.5 -101 t42.5 -80t69.5 -50t101 -18.5q72 0 121.5 27.5t76 81t37.5 120.5t11 158q0 67 -6.5 120t-23.5 101t-44.5 79.5t-70.5 49.5t-101 18t-101 -19t-69.5 -51.5t-42.5 -83t-21.5 -105t-5.5 -126.5z" />
<glyph unicode="p" horiz-adv-x="1091" d="M143 -371v1360h162l14 -104h9q56 58 134.5 93.5t170.5 35.5q100 0 170 -34t110.5 -101.5t58 -157t17.5 -211.5q0 -257 -90.5 -395t-275.5 -138q-169 0 -295 142h-9l19 -133v-357h-195zM322 229q108 -104 241 -104q121 0 174.5 99.5t53.5 285.5q0 67 -6.5 119t-22 96.5 t-41.5 73.5t-65.5 45t-92.5 16q-33 0 -65.5 -6t-55.5 -15t-45.5 -21t-35 -20.5t-25 -18.5t-14.5 -11v-10l12 -103v-338l-12 -77v-11z" />
<glyph unicode="q" horiz-adv-x="1091" d="M102 494q0 253 95.5 386.5t287.5 133.5q92 0 165 -37t120 -88h8l17 100h153v-1360h-192v357l18 135h-8q-50 -65 -128.5 -105.5t-178.5 -40.5q-185 0 -271 130t-86 389zM303 498q0 -189 51 -282t174 -93q140 0 242 106v9l-12 81v343l12 98v10q-105 90 -225 90 q-129 0 -185.5 -90t-56.5 -272z" />
<glyph unicode="r" horiz-adv-x="704" d="M143 0v989h158l18 -115h9q144 140 276 140q39 0 69.5 -6t40.5 -12l11 -7v-145q-57 6 -127 6q-146 0 -276 -84v-8l16 -117v-641h-195z" />
<glyph unicode="s" horiz-adv-x="753" d="M57 12v135q111 -30 246 -30q213 0 213 137q0 83 -96 135q-25 14 -70 34.5t-78 36t-72.5 42.5t-65 57t-43 78t-17.5 106q0 132 96 201.5t262 69.5q71 0 133.5 -10t89.5 -20l27 -9v-137q-80 34 -225 34q-98 0 -149.5 -32.5t-51.5 -94.5q0 -79 92 -131q25 -15 70 -37 t78.5 -38.5t73 -44.5t65.5 -58t43.5 -76t17.5 -102q0 -74 -29 -130t-80 -88.5t-115.5 -48.5t-141.5 -16q-68 0 -136.5 9.5t-102.5 18.5z" />
<glyph unicode="t" horiz-adv-x="653" d="M37 844v145q78 14 127.5 66t83.5 143h106v-61l-39 -148h318v-145h-309l14 -99v-450q0 -85 38 -123.5t120 -38.5l127 6v-139q-66 -20 -185 -20q-165 0 -226.5 64.5t-61.5 217.5v483l16 99h-129z" />
<glyph unicode="u" horiz-adv-x="1120" d="M143 328v661h195v-620q0 -127 46 -178.5t155 -51.5q67 0 137 22.5t125 61.5v8l-17 117v641h193v-989h-158l-16 115h-8q-146 -138 -328 -138q-169 0 -246.5 87t-77.5 264z" />
<glyph unicode="v" horiz-adv-x="915" d="M-16 989h209l237 -676l41 -161l39 161l221 676h195l-340 -989h-234z" />
<glyph unicode="w" horiz-adv-x="1343" d="M-10 989h200l189 -663l35 -154l26 166l154 651h160l170 -651l28 -166l33 156l172 661h197l-287 -989h-223l-133 555l-37 197l-33 -199l-121 -553h-223z" />
<glyph unicode="x" horiz-adv-x="837" d="M-27 0l340 512l-80 109l-235 368h205l166 -272l53 -111l53 109l170 274h201l-305 -481l80 -107l243 -401h-202l-185 299l-57 113l-60 -113l-186 -299h-201z" />
<glyph unicode="y" horiz-adv-x="874" d="M-27 989h205l228 -661l43 -170l38 168l220 663h192l-473 -1358h-195l99 277l67 92h-78z" />
<glyph unicode="z" horiz-adv-x="788" d="M51 0v139l434 631l60 68h-486v151h666v-143l-412 -623l-61 -73h485v-150h-686z" />
<glyph unicode="{" horiz-adv-x="643" d="M41 473v80q85 31 115 99.5t30 181.5v221q0 158 96.5 240.5t299.5 72.5v-129q-68 1 -112 -13t-67.5 -44.5t-32 -69.5t-8.5 -98v-266q0 -48 -16 -89.5t-39 -66t-45.5 -42.5t-38.5 -25l-16 -7v-12q6 -2 16.5 -7t37.5 -24.5t47 -44t37 -67t17 -91.5v-311q0 -103 49 -152.5 t171 -48.5v-129q-200 -12 -298 70.5t-98 243.5v227q0 54 -5.5 96.5t-20.5 85t-45 73t-74 46.5z" />
<glyph unicode="|" horiz-adv-x="387" d="M102 -369v1727h177v-1727h-177z" />
<glyph unicode="}" horiz-adv-x="643" d="M61 -240q122 -1 172 49t50 152v311q0 49 16 91.5t38.5 67.5t44.5 43t38 25l16 7v12q-6 2 -16.5 7t-37 24.5t-46.5 43t-36.5 65.5t-16.5 90v266q0 119 -45.5 172.5t-176.5 52.5v129q203 10 299.5 -72.5t96.5 -240.5v-221q0 -113 30 -181.5t115 -99.5v-80 q-44 -16 -74 -46.5t-45 -73t-20.5 -85t-5.5 -96.5v-227q0 -162 -97.5 -244t-298.5 -70v129z" />
<glyph unicode="~" horiz-adv-x="1171" d="M57 496q4 5 11.5 13t34 29t56.5 37.5t78.5 29.5t100.5 13q66 0 120.5 -12.5t93.5 -30.5t77 -36t89 -30.5t111 -12.5q41 0 79 10t63 24t44 28t27 24l9 10l63 -119q-4 -5 -11.5 -14t-34 -32t-57 -40.5t-80.5 -32t-104 -14.5q-62 0 -115.5 12.5t-93 31t-78.5 36.5t-91 30.5 t-113 12.5q-37 0 -73 -8.5t-60.5 -21t-44 -25t-28.5 -20.5l-9 -9z" />
<glyph unicode="&#xa1;" horiz-adv-x="454" d="M121 801v188h209v-188h-209zM127 219l18 432h164l17 -432v-506h-199v506z" />
<glyph unicode="&#xa2;" horiz-adv-x="888" d="M102 489q0 113 20.5 200.5t65.5 156.5t121.5 110.5t182.5 53.5v164h149v-162q53 -3 99.5 -11.5t66.5 -16.5l20 -7v-131q-88 22 -188 26l-4 -387l4 -366q47 2 95 9.5t72 14.5l25 7v-138q-71 -26 -190 -32v-185h-149v185q-190 20 -290 138.5t-100 370.5zM301 489 q0 -155 46 -242.5t147 -111.5l4 350l-4 369q-101 -29 -147 -118t-46 -247z" />
<glyph unicode="&#xa3;" horiz-adv-x="862" d="M59 0l9 143q85 0 132 70.5t44 210.5q-1 63 3 111t9 65l4 16v11l-96 -4h-84v147h84l94 -4l-14 125v51q0 146 76.5 214.5t252.5 68.5q60 0 112.5 -6.5t75.5 -13.5l23 -7v-147q-63 16 -178 16q-108 0 -145 -41t-37 -164l-16 -96l94 4h200v-147h-200l-96 4v-9q18 -65 18 -196 q0 -66 -11.5 -118.5t-28 -80.5t-33.5 -46.5t-29 -24.5l-11 -5v-10l103 6h387v-143h-742z" />
<glyph unicode="&#xa5;" horiz-adv-x="927" d="M-37 1276h215l238 -524l49 -154l45 152l242 526h211l-373 -719h246v-139h-285v-113h285v-139h-281v-166h-199v166h-266v139h270v113h-270v139h232z" />
<glyph unicode="&#xa7;" horiz-adv-x="800" d="M92 575q0 138 133 228q-125 85 -125 219q0 137 100.5 210t268.5 73q61 0 114.5 -5.5t77 -10.5t23.5 -7v-123q-78 15 -199 15q-223 0 -223 -152q0 -40 24.5 -72.5t64 -55.5t87.5 -45t95.5 -48.5t87 -59t64 -82.5t24.5 -114q0 -134 -134 -228q125 -87 125 -219 q0 -137 -100 -209.5t-268 -72.5q-61 0 -114.5 5t-77 10t-23.5 7v123q77 -14 198 -14q224 0 224 151q0 41 -24.5 73.5t-64 55.5t-87.5 45.5t-95.5 48.5t-87 58.5t-64 82.5t-24.5 113zM256 592q0 -20 5.5 -39t12 -32.5t21.5 -29t25 -24.5t32.5 -23t33.5 -20.5t38 -21t37 -19.5 q84 52 84 145q0 23 -5 43t-19.5 38t-24.5 30t-35.5 28.5t-36.5 23t-44 24t-42 22.5q-82 -55 -82 -145z" />
<glyph unicode="&#xa8;" horiz-adv-x="735" d="M78 1141v180h192v-180h-192zM465 1141v180h188v-180h-188z" />
<glyph unicode="&#xa9;" horiz-adv-x="1601" d="M82 618q0 149 36 266t99.5 195t155 129t197.5 73t233 22q717 0 717 -678q0 -143 -37 -255t-101 -186t-156 -122t-196.5 -68.5t-228.5 -20.5q-113 0 -213 19t-194.5 66t-162 119t-108.5 185t-41 256zM260 627q0 -139 37.5 -238.5t110.5 -157t169.5 -84t223.5 -26.5 q138 0 236 26t167.5 84.5t103 156.5t33.5 239q0 282 -132.5 406t-409.5 124q-269 0 -404 -125.5t-135 -404.5zM498 641q0 194 84.5 288.5t275.5 94.5q51 0 92.5 -6t57.5 -12l16 -7v-116q-68 20 -150 20q-108 0 -155 -62t-47 -198q0 -133 45.5 -191.5t156.5 -58.5 q37 0 76.5 5.5t60.5 10.5l21 5v-121q-65 -25 -188 -25q-173 0 -259.5 85t-86.5 288z" />
<glyph unicode="&#xaa;" horiz-adv-x="694" d="M72 942q0 106 77 155.5t234 49.5h86q3 66 -31 92.5t-114 26.5q-53 0 -103.5 -6t-74.5 -12l-25 -5v115q85 26 235 26q133 0 193.5 -48.5t60.5 -164.5v-393h-131l-8 64h-6q-19 -19 -34 -31t-60 -27.5t-101 -15.5q-94 0 -146 49t-52 125zM221 954q0 -38 23 -60t69 -22 q96 0 154 52l-8 51v22l6 54h-82q-83 0 -122.5 -21.5t-39.5 -75.5z" />
<glyph unicode="&#xab;" horiz-adv-x="1003" d="M37 496l403 483l144 -88l-262 -303l-84 -90l79 -90l267 -308l-142 -90zM444 496l365 444l141 -88l-213 -258l-92 -96l80 -88l227 -271l-141 -90z" />
<glyph unicode="&#xac;" horiz-adv-x="1136" d="M47 471v154h1008v-420h-154v266h-854z" />
<glyph unicode="&#xad;" horiz-adv-x="835" d="M92 455v159h651v-159h-651z" />
<glyph unicode="&#xae;" horiz-adv-x="1601" d="M82 618q0 149 36 266t99.5 195t155 129t197.5 73t233 22q717 0 717 -678q0 -143 -37 -255t-101 -186t-156 -122t-196.5 -68.5t-228.5 -20.5q-113 0 -213 19t-194.5 66t-162 119t-108.5 185t-41 256zM260 627q0 -139 37.5 -238.5t110.5 -157t169.5 -84t223.5 -26.5 q138 0 236 26t167.5 84.5t103 156.5t33.5 239q0 282 -132.5 406t-409.5 124q-269 0 -404 -125.5t-135 -404.5zM557 285v723h240q284 0 284 -234q0 -161 -139 -211l37 -45l123 -233h-168l-105 200l-14 50h-113l9 -58v-192h-154zM702 657h78q78 0 113 26t35 91q0 62 -34 86.5 t-114 24.5h-78l11 -54v-110z" />
<glyph unicode="&#xb0;" horiz-adv-x="757" d="M72 1018q0 141 72.5 213t240.5 72q297 0 297 -277q0 -135 -78 -210t-233 -75q-153 0 -226 73.5t-73 203.5zM260 1020q0 -64 25.5 -98.5t87.5 -34.5q123 0 123 137q0 133 -115 133q-69 0 -95 -35t-26 -102z" />
<glyph unicode="&#xb1;" horiz-adv-x="1040" d="M82 535v176h182l166 -9l10 9l-8 170v114h178v-112l-8 -172l12 -9l164 9h180v-176h-182l-164 10l-10 -8l8 -175v-124h-178v129l6 170l-8 6l-154 -8h-194zM92 0v162h856v-162h-856z" />
<glyph unicode="&#xb4;" horiz-adv-x="534" d="M72 1124l180 260h209l-242 -260h-147z" />
<glyph unicode="&#xb5;" horiz-adv-x="1120" d="M143 -371v1360h195v-620q0 -121 48 -175.5t153 -54.5q67 0 137 22.5t125 61.5v8l-17 117v641h193v-989h-158l-16 115h-8q-4 -3 -27 -22.5t-37.5 -30.5t-44 -29.5t-55.5 -28.5t-62 -18.5t-73 -8.5q-123 0 -205 58l35 -178v-228h-183z" />
<glyph unicode="&#xb6;" horiz-adv-x="1218" d="M92 492q0 111 21.5 197.5t69 156t133 106.5t204.5 37h555v-1358h-555v355q-428 0 -428 506zM293 492q0 -175 59 -262t168 -87v703q-113 0 -170 -81t-57 -273zM694 -223h207v1069h-207v-1069z" />
<glyph unicode="&#xb7;" horiz-adv-x="434" d="M113 424v188h209v-188h-209z" />
<glyph unicode="&#xb8;" horiz-adv-x="514" d="M51 -375l39 96q126 -17 187 -2t61 58q0 21 -19 34t-59 18.5t-74 7t-92 1.5l17 174l131 11l-9 -89q119 -5 181.5 -40t62.5 -111q0 -68 -41.5 -111t-107 -56.5t-137 -11t-140.5 20.5z" />
<glyph unicode="&#xba;" horiz-adv-x="753" d="M82 1071q0 77 13 131.5t45.5 96.5t91.5 62.5t147 20.5q164 0 228.5 -75.5t64.5 -227.5q0 -158 -65.5 -235.5t-229.5 -77.5q-162 0 -228.5 73.5t-66.5 231.5zM240 1069q0 -107 29 -153t108 -46q80 0 108.5 46.5t28.5 162.5q0 108 -29 153.5t-108 45.5t-108 -48t-29 -161z " />
<glyph unicode="&#xbb;" horiz-adv-x="1003" d="M51 139l215 258l90 95l-80 90l-225 270l142 88l364 -444l-362 -445zM418 891l141 88l408 -483l-406 -486l-141 88l262 305l84 89l-82 90z" />
<glyph unicode="&#xbf;" horiz-adv-x="733" d="M66 -45q0 53 17 101.5t44 85t59.5 70.5t65.5 63.5t60 58t44 60.5t17 65t-17.5 54.5t-62.5 41.5l104 117q89 -39 128.5 -91.5t39.5 -123.5q0 -48 -21.5 -94t-54 -80.5t-70 -72t-70 -69.5t-54 -73t-21.5 -82q0 -60 43 -94.5t132 -34.5q59 0 117.5 9.5t87.5 19.5l28 10v-162 q-7 -2 -40 -11t-60 -15.5t-73.5 -12.5t-94.5 -6q-166 2 -257 70t-91 196zM322 801v188h208v-188h-208z" />
<glyph unicode="&#xc0;" d="M-20 0l348 1276h258l346 -1276h-199l-65 252l-11 90h-405l-8 -90l-68 -252h-196zM141 1630h211l180 -260h-147zM299 489h313l-30 93l-125 522l-127 -524z" />
<glyph unicode="&#xc1;" d="M-20 0l348 1276h258l346 -1276h-199l-65 252l-11 90h-405l-8 -90l-68 -252h-196zM299 489h313l-30 93l-125 522l-127 -524zM373 1370l180 260h211l-244 -260h-147z" />
<glyph unicode="&#xc2;" d="M-20 0l348 1276h258l346 -1276h-199l-65 252l-11 90h-405l-8 -90l-68 -252h-196zM98 1370l236 260h244l235 -260h-209l-149 162l-148 -162h-209zM299 489h313l-30 93l-125 522l-127 -524z" />
<glyph unicode="&#xc3;" d="M-20 0l348 1276h258l346 -1276h-199l-65 252l-11 90h-405l-8 -90l-68 -252h-196zM70 1470q2 7 6 17.5t21 38.5t39.5 49.5t63.5 39t91 17.5q52 0 94 -15t66.5 -33t61.5 -32.5t79 -13.5q29 1 54.5 11t40.5 24.5t26 28.5t15 24l5 10l111 -90q-2 -7 -6.5 -18t-23 -39.5 t-42 -50.5t-65.5 -40t-91 -18q-57 0 -103.5 14.5t-72 32t-60.5 32t-71 14.5q-29 0 -52.5 -9.5t-36.5 -23.5t-21.5 -27.5t-11.5 -22.5l-3 -10zM299 489h313l-30 93l-125 522l-127 -524z" />
<glyph unicode="&#xc4;" d="M-20 0l348 1276h258l346 -1276h-199l-65 252l-11 90h-405l-8 -90l-68 -252h-196zM168 1403v180h192v-180h-192zM299 489h313l-30 93l-125 522l-127 -524zM555 1403v180h188v-180h-188z" />
<glyph unicode="&#xc5;" d="M-20 0l348 1276h258l346 -1276h-199l-65 252l-11 90h-405l-8 -90l-68 -252h-196zM242 1505q0 76 53.5 120t165.5 44q99 0 154 -43t55 -119q0 -73 -59 -118.5t-160 -45.5t-155 45t-54 117zM299 489h313l-30 93l-125 522l-127 -524zM385 1505q0 -61 68 -61q73 0 73 63 q0 28 -17.5 45t-51.5 17q-72 0 -72 -64z" />
<glyph unicode="&#xc6;" horiz-adv-x="1366" d="M-76 0l600 1276h750v-158h-377l-111 12l29 -387l98 9h295v-166h-293l-88 12l33 -451l105 13h309v-160h-596l-16 252l6 86h-404l-26 -86l-117 -252h-197zM338 496h315l-14 86l-18 522l-236 -524z" />
<glyph unicode="&#xc7;" horiz-adv-x="794" d="M92 639q0 178 32 306.5t94 205.5t146.5 113t196.5 36q58 0 108.5 -8t71.5 -16l21 -8v-146q-78 21 -182 21q-154 0 -220.5 -117t-66.5 -387q0 -265 67 -384.5t211 -119.5q50 0 100 5.5t75 10.5l24 5v-146q-78 -33 -209 -35l-2 -41q117 -5 179.5 -40t62.5 -111 q0 -68 -41.5 -111t-106.5 -56.5t-136.5 -11t-139.5 20.5l39 96q126 -17 187 -2t61 58q0 21 -19 34t-59 18.5t-74 7t-92 1.5l14 152q-169 38 -255.5 194.5t-86.5 454.5z" />
<glyph unicode="&#xc8;" horiz-adv-x="860" d="M143 0v1276h625v-148h-440l14 -104v-166l-14 -106h374v-164h-374l14 -115v-201l-14 -122h440v-150h-625zM219 1630h211l180 -260h-147z" />
<glyph unicode="&#xc9;" horiz-adv-x="860" d="M143 0v1276h625v-148h-440l14 -104v-166l-14 -106h374v-164h-374l14 -115v-201l-14 -122h440v-150h-625zM315 1370l181 260h209l-242 -260h-148z" />
<glyph unicode="&#xca;" horiz-adv-x="860" d="M106 1376l234 262h246l233 -262h-209l-147 162l-148 -162h-209zM143 0v1276h625v-148h-440l14 -104v-166l-14 -106h374v-164h-374l14 -115v-201l-14 -122h440v-150h-625z" />
<glyph unicode="&#xcb;" horiz-adv-x="860" d="M143 0v1276h625v-148h-440l14 -104v-166l-14 -106h374v-164h-374l14 -115v-201l-14 -122h440v-150h-625zM170 1436v180h192v-180h-192zM557 1436v180h188v-180h-188z" />
<glyph unicode="&#xcc;" horiz-adv-x="411" d="M-72 1630h211l180 -260h-147zM135 0v1276h197v-1276h-197z" />
<glyph unicode="&#xcd;" horiz-adv-x="485" d="M143 0v1276h199v-1276h-199zM166 1370l180 260h209l-242 -260h-147z" />
<glyph unicode="&#xce;" horiz-adv-x="485" d="M-115 1374l236 262h246l233 -262h-209l-147 162l-148 -162h-211zM143 0v1276h199v-1276h-199z" />
<glyph unicode="&#xcf;" horiz-adv-x="485" d="M-45 1434v180h192v-180h-192zM143 0v1276h199v-1276h-199zM342 1434v180h188v-180h-188z" />
<glyph unicode="&#xd1;" horiz-adv-x="1214" d="M143 0v1276h205l451 -789l88 -176h10l-25 258v707h199v-1276h-205l-448 782l-90 176h-11l25 -225v-733h-199zM219 1470q2 7 6 17.5t21.5 38.5t40 49.5t64 39t91.5 17.5q42 0 76.5 -10t58.5 -24t47 -28t53.5 -23.5t65.5 -8.5q46 1 81.5 25.5t47.5 48.5l13 24l108 -90 q-2 -7 -6.5 -18t-23 -39.5t-41.5 -50.5t-65 -40t-91 -18q-57 0 -103.5 14.5t-71.5 32t-59.5 32t-70.5 14.5q-30 0 -54 -9.5t-37 -23.5t-21.5 -27.5t-11.5 -22.5l-3 -10z" />
<glyph unicode="&#xd2;" horiz-adv-x="1191" d="M92 635q0 131 12 227t44.5 182.5t89 140t147.5 84.5t217 31q120 0 207.5 -30t143 -82.5t89 -137t46 -181t12.5 -226.5q0 -106 -9.5 -190t-31 -161.5t-60 -134t-94 -98.5t-135 -63t-180.5 -21q-120 0 -209 32t-144 86.5t-88 140.5t-45 180.5t-12 220.5zM295 637 q0 -106 6.5 -179.5t25 -137.5t51.5 -101.5t85.5 -58.5t126.5 -21q75 0 128.5 20t88 57t54 100.5t27 139.5t7.5 185q0 107 -6.5 180.5t-25 137.5t-52 100.5t-86 57t-127.5 20.5q-64 0 -112 -13t-81.5 -41.5t-55 -67t-33.5 -98t-16.5 -124.5t-4.5 -156zM338 1630h209l180 -260 h-147z" />
<glyph unicode="&#xd3;" horiz-adv-x="1191" d="M92 635q0 131 12 227t44.5 182.5t89 140t147.5 84.5t217 31q120 0 207.5 -30t143 -82.5t89 -137t46 -181t12.5 -226.5q0 -106 -9.5 -190t-31 -161.5t-60 -134t-94 -98.5t-135 -63t-180.5 -21q-120 0 -209 32t-144 86.5t-88 140.5t-45 180.5t-12 220.5zM295 637 q0 -106 6.5 -179.5t25 -137.5t51.5 -101.5t85.5 -58.5t126.5 -21q75 0 128.5 20t88 57t54 100.5t27 139.5t7.5 185q0 107 -6.5 180.5t-25 137.5t-52 100.5t-86 57t-127.5 20.5q-64 0 -112 -13t-81.5 -41.5t-55 -67t-33.5 -98t-16.5 -124.5t-4.5 -156zM506 1370l180 260h209 l-242 -260h-147z" />
<glyph unicode="&#xd4;" horiz-adv-x="1191" d="M92 635q0 131 12 227t44.5 182.5t89 140t147.5 84.5t217 31q120 0 207.5 -30t143 -82.5t89 -137t46 -181t12.5 -226.5q0 -106 -9.5 -190t-31 -161.5t-60 -134t-94 -98.5t-135 -63t-180.5 -21q-120 0 -209 32t-144 86.5t-88 140.5t-45 180.5t-12 220.5zM240 1374l233 262 h246l233 -262h-209l-147 162l-147 -162h-209zM295 637q0 -106 6.5 -179.5t25 -137.5t51.5 -101.5t85.5 -58.5t126.5 -21q75 0 128.5 20t88 57t54 100.5t27 139.5t7.5 185q0 107 -6.5 180.5t-25 137.5t-52 100.5t-86 57t-127.5 20.5q-64 0 -112 -13t-81.5 -41.5t-55 -67 t-33.5 -98t-16.5 -124.5t-4.5 -156z" />
<glyph unicode="&#xd5;" horiz-adv-x="1191" d="M92 635q0 131 12 227t44.5 182.5t89 140t147.5 84.5t217 31q120 0 207.5 -30t143 -82.5t89 -137t46 -181t12.5 -226.5q0 -106 -9.5 -190t-31 -161.5t-60 -134t-94 -98.5t-135 -63t-180.5 -21q-120 0 -209 32t-144 86.5t-88 140.5t-45 180.5t-12 220.5zM233 1479q2 6 6 17 t20 38t37.5 47.5t60.5 37.5t85 17q39 0 72 -9.5t56 -23.5t44.5 -27.5t49.5 -23t61 -8.5q27 1 51 10.5t38.5 23.5t25 27.5t14.5 22.5l4 10l105 -88q-2 -7 -6.5 -17.5t-21.5 -38.5t-39 -49t-61 -38.5t-85 -17.5q-54 0 -98 14t-68 31t-56.5 31t-66.5 14q-27 0 -49.5 -9.5 t-35 -22.5t-20.5 -26t-11 -23l-3 -9zM295 637q0 -106 6.5 -179.5t25 -137.5t51.5 -101.5t85.5 -58.5t126.5 -21q75 0 128.5 20t88 57t54 100.5t27 139.5t7.5 185q0 107 -6.5 180.5t-25 137.5t-52 100.5t-86 57t-127.5 20.5q-64 0 -112 -13t-81.5 -41.5t-55 -67t-33.5 -98 t-16.5 -124.5t-4.5 -156z" />
<glyph unicode="&#xd6;" horiz-adv-x="1191" d="M92 635q0 131 12 227t44.5 182.5t89 140t147.5 84.5t217 31q120 0 207.5 -30t143 -82.5t89 -137t46 -181t12.5 -226.5q0 -106 -9.5 -190t-31 -161.5t-60 -134t-94 -98.5t-135 -63t-180.5 -21q-120 0 -209 32t-144 86.5t-88 140.5t-45 180.5t-12 220.5zM295 637 q0 -106 6.5 -179.5t25 -137.5t51.5 -101.5t85.5 -58.5t126.5 -21q75 0 128.5 20t88 57t54 100.5t27 139.5t7.5 185q0 107 -6.5 180.5t-25 137.5t-52 100.5t-86 57t-127.5 20.5q-64 0 -112 -13t-81.5 -41.5t-55 -67t-33.5 -98t-16.5 -124.5t-4.5 -156zM307 1407v180h193v-180 h-193zM694 1407v180h189v-180h-189z" />
<glyph unicode="&#xd8;" horiz-adv-x="1191" d="M92 -4l101 158q-101 149 -101 481q0 131 12 227t44.5 182.5t89 140t147.5 84.5t217 31q151 0 248 -51l82 137l160 -73l-107 -164q115 -151 115 -506q0 -106 -9.5 -190t-31 -161.5t-60 -134t-94 -98.5t-135 -63t-180.5 -21q-160 0 -268 68l-68 -123zM295 637 q0 -188 29 -281l227 346l219 390q-62 45 -172 45q-64 0 -112 -13t-81.5 -41.5t-55 -67t-33.5 -98t-16.5 -124.5t-4.5 -156zM403 199q66 -60 187 -60q75 0 128.5 20t88 57t54 100.5t27 139.5t7.5 185q0 211 -41 303l-238 -362z" />
<glyph unicode="&#xd9;" horiz-adv-x="1150" d="M119 483v791h200v-813q0 -169 62.5 -244.5t191.5 -75.5t195 76t66 244v813h200v-791q0 -271 -115.5 -388.5t-349.5 -117.5q-235 0 -342.5 116.5t-107.5 389.5zM309 1632h209l180 -260h-147z" />
<glyph unicode="&#xda;" horiz-adv-x="1150" d="M119 483v791h200v-813q0 -169 62.5 -244.5t191.5 -75.5t195 76t66 244v813h200v-791q0 -271 -115.5 -388.5t-349.5 -117.5q-235 0 -342.5 116.5t-107.5 389.5zM489 1370l181 260h209l-242 -260h-148z" />
<glyph unicode="&#xdb;" horiz-adv-x="1150" d="M119 483v791h200v-813q0 -169 62.5 -244.5t191.5 -75.5t195 76t66 244v813h200v-791q0 -271 -115.5 -388.5t-349.5 -117.5q-235 0 -342.5 116.5t-107.5 389.5zM219 1370l234 262h245l234 -262h-209l-148 162l-147 -162h-209z" />
<glyph unicode="&#xdc;" horiz-adv-x="1150" d="M119 483v791h200v-813q0 -169 62.5 -244.5t191.5 -75.5t195 76t66 244v813h200v-791q0 -271 -115.5 -388.5t-349.5 -117.5q-235 0 -342.5 116.5t-107.5 389.5zM289 1407v180h192v-180h-192zM676 1407v180h188v-180h-188z" />
<glyph unicode="&#xdf;" horiz-adv-x="1169" d="M152 0v911q0 111 21 193t70 146t137.5 97t215.5 33q115 0 209 -36t154.5 -114.5t60.5 -187.5q0 -69 -28 -123.5t-70 -86t-90.5 -60t-90.5 -48.5t-70 -49.5t-28 -64.5q0 -30 22.5 -52.5t58.5 -38t79.5 -30.5t87 -35t79.5 -47t58.5 -72t22.5 -104q0 -122 -90.5 -189 t-247.5 -67q-70 0 -139 9.5t-102 18.5l-34 9v138q113 -31 248 -31q87 0 132.5 31.5t45.5 87.5q0 31 -22.5 54t-58 37.5t-78.5 29t-86.5 33.5t-79 44.5t-58 69t-22.5 100.5q0 51 20 91t52 65.5t70.5 47.5t77 42t70.5 42.5t52 57t20 78.5q0 91 -54 150t-165 59 q-130 0 -194 -74.5t-64 -236.5v-928h-192z" />
<glyph unicode="&#xe0;" horiz-adv-x="997" d="M72 285q0 331 458 331h154l-12 78q0 97 -55 137.5t-189 40.5q-69 0 -138 -4.5t-104 -9.5l-34 -4v133q122 27 292 27q229 0 321.5 -74.5t92.5 -265.5v-674h-160l-12 104h-8q-110 -124 -291 -124q-152 0 -233.5 84.5t-81.5 220.5zM246 299q0 -72 46.5 -123t139.5 -51 q150 0 248 98l-10 90v88l8 91h-146q-141 0 -213.5 -49t-72.5 -144zM276 1360h211l181 -260h-148z" />
<glyph unicode="&#xe1;" horiz-adv-x="997" d="M72 285q0 331 458 331h154l-12 78q0 97 -55 137.5t-189 40.5q-69 0 -138 -4.5t-104 -9.5l-34 -4v133q122 27 292 27q229 0 321.5 -74.5t92.5 -265.5v-674h-160l-12 104h-8q-110 -124 -291 -124q-152 0 -233.5 84.5t-81.5 220.5zM246 299q0 -72 46.5 -123t139.5 -51 q150 0 248 98l-10 90v88l8 91h-146q-141 0 -213.5 -49t-72.5 -144zM367 1098l180 260h209l-242 -260h-147z" />
<glyph unicode="&#xe2;" horiz-adv-x="997" d="M72 285q0 331 458 331h154l-12 78q0 97 -55 137.5t-189 40.5q-69 0 -138 -4.5t-104 -9.5l-34 -4v133q122 27 292 27q229 0 321.5 -74.5t92.5 -265.5v-674h-160l-12 104h-8q-110 -124 -291 -124q-152 0 -233.5 84.5t-81.5 220.5zM141 1108l234 260h246l233 -260h-209 l-147 162l-148 -162h-209zM246 299q0 -72 46.5 -123t139.5 -51q150 0 248 98l-10 90v88l8 91h-146q-141 0 -213.5 -49t-72.5 -144z" />
<glyph unicode="&#xe3;" horiz-adv-x="997" d="M72 285q0 331 458 331h154l-12 78q0 97 -55 137.5t-189 40.5q-69 0 -138 -4.5t-104 -9.5l-34 -4v133q122 27 292 27q229 0 321.5 -74.5t92.5 -265.5v-674h-160l-12 104h-8q-110 -124 -291 -124q-152 0 -233.5 84.5t-81.5 220.5zM113 1219q2 7 6 17.5t21 38.5t39.5 49 t63.5 38.5t91 17.5q52 0 94 -15t66.5 -33t61.5 -32.5t79 -13.5q29 1 54.5 11t40.5 24t26 28t16 23l4 10l111 -88q-2 -7 -6.5 -18t-23 -40t-42 -51.5t-65.5 -40.5t-91 -18q-57 0 -103.5 14.5t-72 32t-60.5 32t-71 14.5q-29 0 -52.5 -9.5t-36.5 -23.5t-21.5 -27.5t-11.5 -22.5 l-3 -10zM246 299q0 -72 46.5 -123t139.5 -51q150 0 248 98l-10 90v88l8 91h-146q-141 0 -213.5 -49t-72.5 -144z" />
<glyph unicode="&#xe4;" horiz-adv-x="997" d="M72 285q0 331 458 331h154l-12 78q0 97 -55 137.5t-189 40.5q-69 0 -138 -4.5t-104 -9.5l-34 -4v133q122 27 292 27q229 0 321.5 -74.5t92.5 -265.5v-674h-160l-12 104h-8q-110 -124 -291 -124q-152 0 -233.5 84.5t-81.5 220.5zM211 1178v180h192v-180h-192zM246 299 q0 -72 46.5 -123t139.5 -51q150 0 248 98l-10 90v88l8 91h-146q-141 0 -213.5 -49t-72.5 -144zM598 1178v180h188v-180h-188z" />
<glyph unicode="&#xe5;" horiz-adv-x="997" d="M72 285q0 331 458 331h154l-12 78q0 97 -55 137.5t-189 40.5q-69 0 -138 -4.5t-104 -9.5l-34 -4v133q122 27 292 27q229 0 321.5 -74.5t92.5 -265.5v-674h-160l-12 104h-8q-110 -124 -291 -124q-152 0 -233.5 84.5t-81.5 220.5zM246 299q0 -72 46.5 -123t139.5 -51 q150 0 248 98l-10 90v88l8 91h-146q-141 0 -213.5 -49t-72.5 -144zM285 1229q0 76 53.5 120t165.5 44q99 0 154 -43t55 -119q0 -73 -59 -118.5t-160 -45.5t-155 45t-54 117zM428 1229q0 -62 68 -62q73 0 73 64q0 27 -17.5 44t-51.5 17q-72 0 -72 -63z" />
<glyph unicode="&#xe6;" horiz-adv-x="1572" d="M86 285q0 331 459 331h153l-12 78q0 97 -55 137.5t-191 40.5q-68 0 -136.5 -4.5t-103.5 -9.5l-34 -4v133q121 27 291 27q138 0 221.5 -32t124.5 -101q102 133 327 133q193 0 285 -91.5t92 -248.5q0 -70 -25.5 -121t-71.5 -80t-103.5 -42t-128.5 -13h-297l20 -90 q10 -94 69 -152.5t179 -58.5q63 0 135.5 11t113.5 22l42 12v-139q-13 -5 -38 -13t-103 -21.5t-158 -13.5q-143 0 -235.5 39.5t-143.5 128.5q-48 -59 -144 -111t-219 -52q-151 0 -232 84.5t-81 220.5zM260 299q0 -72 46.5 -123t139.5 -51q147 0 279 106q-31 102 -31 261h-149 q-285 0 -285 -193zM885 543h239q104 0 150.5 31t46.5 108q0 84 -45 137t-150 53q-106 0 -160.5 -58.5t-62.5 -160.5l-2 -24z" />
<glyph unicode="&#xe7;" horiz-adv-x="868" d="M102 489q0 101 11.5 177t41 144t79 111t129 68t186.5 25q70 0 132 -9t89 -19l27 -9v-131q-104 26 -217 26q-153 0 -216 -92t-63 -291q0 -196 62.5 -283t216.5 -87q54 0 109 7.5t83 15.5l29 8v-138q-90 -35 -262 -35l-4 -43q117 -5 179 -40t62 -111q0 -68 -41.5 -111 t-106.5 -56.5t-136.5 -11t-139.5 20.5l39 96q126 -17 187 -2t61 58q0 21 -19 34t-59 18.5t-74 7t-92 1.5l15 150q-158 28 -233 145t-75 356z" />
<glyph unicode="&#xe8;" horiz-adv-x="983" d="M102 498q0 264 100 390t339 126q192 0 283 -91.5t91 -248.5q0 -256 -329 -256h-297l20 -90q10 -94 69.5 -152.5t178.5 -58.5q63 0 135.5 11t113.5 22l42 12v-139q-13 -5 -38 -13t-102.5 -21.5t-156.5 -13.5q-241 0 -345 118t-104 405zM289 1356h211l180 -260h-148z M293 543h242q103 0 148.5 31t45.5 108q0 84 -44.5 137t-149.5 53q-106 0 -161 -58.5t-63 -160.5l-2 -24z" />
<glyph unicode="&#xe9;" horiz-adv-x="983" d="M102 498q0 264 100 390t339 126q192 0 283 -91.5t91 -248.5q0 -256 -329 -256h-297l20 -90q10 -94 69.5 -152.5t178.5 -58.5q63 0 135.5 11t113.5 22l42 12v-139q-13 -5 -38 -13t-102.5 -21.5t-156.5 -13.5q-241 0 -345 118t-104 405zM293 543h242q103 0 148.5 31 t45.5 108q0 84 -44.5 137t-149.5 53q-106 0 -161 -58.5t-63 -160.5l-2 -24zM408 1098l180 260h211l-244 -260h-147z" />
<glyph unicode="&#xea;" horiz-adv-x="983" d="M102 498q0 264 100 390t339 126q192 0 283 -91.5t91 -248.5q0 -256 -329 -256h-297l20 -90q10 -94 69.5 -152.5t178.5 -58.5q63 0 135.5 11t113.5 22l42 12v-139q-13 -5 -38 -13t-102.5 -21.5t-156.5 -13.5q-241 0 -345 118t-104 405zM180 1104l234 262h245l234 -262 h-209l-147 162l-148 -162h-209zM293 543h242q103 0 148.5 31t45.5 108q0 84 -44.5 137t-149.5 53q-106 0 -161 -58.5t-63 -160.5l-2 -24z" />
<glyph unicode="&#xeb;" horiz-adv-x="983" d="M102 498q0 264 100 390t339 126q192 0 283 -91.5t91 -248.5q0 -256 -329 -256h-297l20 -90q10 -94 69.5 -152.5t178.5 -58.5q63 0 135.5 11t113.5 22l42 12v-139q-13 -5 -38 -13t-102.5 -21.5t-156.5 -13.5q-241 0 -345 118t-104 405zM242 1178v180h192v-180h-192z M293 543h242q103 0 148.5 31t45.5 108q0 84 -44.5 137t-149.5 53q-106 0 -161 -58.5t-63 -160.5l-2 -24zM629 1178v180h188v-180h-188z" />
<glyph unicode="&#xec;" horiz-adv-x="475" d="M-66 1384h211l181 -260h-148zM143 0v989h189v-989h-189z" />
<glyph unicode="&#xed;" horiz-adv-x="475" d="M143 0v989h189v-989h-189zM158 1124l180 260h209l-242 -260h-147z" />
<glyph unicode="&#xee;" horiz-adv-x="475" d="M-119 1106l236 260h243l236 -260h-209l-149 162l-148 -162h-209zM143 0v989h189v-989h-189z" />
<glyph unicode="&#xef;" horiz-adv-x="475" d="M-51 1180v180h194v-180h-194zM143 0v989h189v-989h-189zM338 1180v180h188v-180h-188z" />
<glyph unicode="&#xf1;" horiz-adv-x="1124" d="M143 0v989h158l18 -115h9q66 61 157.5 100.5t198.5 39.5q159 0 228 -87.5t69 -262.5v-664h-195v645q0 106 -41 155.5t-143 49.5q-75 0 -150 -22t-130 -62v-8l16 -117v-641h-195zM174 1214q2 7 6 17.5t21.5 38.5t40 49.5t64 39t91.5 17.5q42 0 76.5 -10t58.5 -24t47 -28 t53.5 -23.5t65.5 -8.5q46 1 81.5 25.5t48.5 48.5l12 24l108 -90q-2 -7 -6.5 -18t-23 -39.5t-41.5 -50.5t-65 -40t-91 -18q-57 0 -103.5 14.5t-71.5 32t-59.5 32t-70.5 14.5q-30 0 -54 -9.5t-37 -23.5t-21.5 -27.5t-11.5 -22.5l-3 -10z" />
<glyph unicode="&#xf2;" horiz-adv-x="1089" d="M102 489q0 98 12 174.5t43 144t80.5 111.5t127.5 69.5t182 25.5q101 0 177 -24t125.5 -66.5t80.5 -107.5t44 -140.5t13 -171.5q0 -125 -21.5 -218t-71 -165t-137 -109t-212.5 -37q-123 0 -209.5 33.5t-137.5 101t-73.5 160t-22.5 219.5zM287 1360h209l180 -260h-148z M303 487q0 -68 5.5 -120.5t21.5 -101t42.5 -80t69.5 -50t101 -18.5q72 0 121 27.5t75.5 81t37.5 120.5t11 158q0 68 -6.5 120.5t-23 100.5t-44 79.5t-70.5 49.5t-101 18t-101 -19t-69.5 -51.5t-42.5 -83t-21.5 -105t-5.5 -126.5z" />
<glyph unicode="&#xf3;" horiz-adv-x="1089" d="M102 489q0 98 12 174.5t43 144t80.5 111.5t127.5 69.5t182 25.5q101 0 177 -24t125.5 -66.5t80.5 -107.5t44 -140.5t13 -171.5q0 -125 -21.5 -218t-71 -165t-137 -109t-212.5 -37q-123 0 -209.5 33.5t-137.5 101t-73.5 160t-22.5 219.5zM303 487q0 -68 5.5 -120.5 t21.5 -101t42.5 -80t69.5 -50t101 -18.5q72 0 121 27.5t75.5 81t37.5 120.5t11 158q0 68 -6.5 120.5t-23 100.5t-44 79.5t-70.5 49.5t-101 18t-101 -19t-69.5 -51.5t-42.5 -83t-21.5 -105t-5.5 -126.5zM455 1100l180 260h211l-244 -260h-147z" />
<glyph unicode="&#xf4;" horiz-adv-x="1089" d="M102 489q0 98 12 174.5t43 144t80.5 111.5t127.5 69.5t182 25.5q101 0 177 -24t125.5 -66.5t80.5 -107.5t44 -140.5t13 -171.5q0 -125 -21.5 -218t-71 -165t-137 -109t-212.5 -37q-123 0 -209.5 33.5t-137.5 101t-73.5 160t-22.5 219.5zM188 1106l234 262h246l233 -262 h-209l-147 162l-148 -162h-209zM303 487q0 -68 5.5 -120.5t21.5 -101t42.5 -80t69.5 -50t101 -18.5q72 0 121 27.5t75.5 81t37.5 120.5t11 158q0 68 -6.5 120.5t-23 100.5t-44 79.5t-70.5 49.5t-101 18t-101 -19t-69.5 -51.5t-42.5 -83t-21.5 -105t-5.5 -126.5z" />
<glyph unicode="&#xf5;" horiz-adv-x="1089" d="M102 489q0 98 12 174.5t43 144t80.5 111.5t127.5 69.5t182 25.5q101 0 177 -24t125.5 -66.5t80.5 -107.5t44 -140.5t13 -171.5q0 -125 -21.5 -218t-71 -165t-137 -109t-212.5 -37q-123 0 -209.5 33.5t-137.5 101t-73.5 160t-22.5 219.5zM158 1217q2 7 6 17.5t21 38.5 t39.5 49t63.5 38.5t91 17.5q52 0 94 -15t66.5 -33t61.5 -32.5t79 -13.5q29 1 54.5 11t40.5 24t26 28t15 23l5 10l111 -88q-2 -7 -6.5 -18t-23 -40t-41.5 -51.5t-65 -40.5t-91 -18q-57 0 -104 14.5t-72.5 32t-60.5 32t-71 14.5q-29 0 -52.5 -9.5t-36.5 -23.5t-21.5 -27.5 t-11.5 -22.5l-3 -10zM303 487q0 -68 5.5 -120.5t21.5 -101t42.5 -80t69.5 -50t101 -18.5q72 0 121 27.5t75.5 81t37.5 120.5t11 158q0 68 -6.5 120.5t-23 100.5t-44 79.5t-70.5 49.5t-101 18t-101 -19t-69.5 -51.5t-42.5 -83t-21.5 -105t-5.5 -126.5z" />
<glyph unicode="&#xf6;" horiz-adv-x="1089" d="M102 489q0 98 12 174.5t43 144t80.5 111.5t127.5 69.5t182 25.5q101 0 177 -24t125.5 -66.5t80.5 -107.5t44 -140.5t13 -171.5q0 -125 -21.5 -218t-71 -165t-137 -109t-212.5 -37q-123 0 -209.5 33.5t-137.5 101t-73.5 160t-22.5 219.5zM256 1182v180h193v-180h-193z M303 487q0 -68 5.5 -120.5t21.5 -101t42.5 -80t69.5 -50t101 -18.5q72 0 121 27.5t75.5 81t37.5 120.5t11 158q0 68 -6.5 120.5t-23 100.5t-44 79.5t-70.5 49.5t-101 18t-101 -19t-69.5 -51.5t-42.5 -83t-21.5 -105t-5.5 -126.5zM643 1182v180h188v-180h-188z" />
<glyph unicode="&#xf7;" horiz-adv-x="968" d="M78 463v145h813v-145h-813zM371 100v189h209v-189h-209zM371 774v189h209v-189h-209z" />
<glyph unicode="&#xf8;" horiz-adv-x="1089" d="M92 -12l98 133q-88 123 -88 368q0 98 12 174.5t43 144t80.5 111.5t127.5 69.5t182 25.5q130 0 215 -45l51 88l174 -51l-94 -132q94 -118 94 -370q0 -125 -21.5 -218t-71 -165t-137 -109t-212.5 -37q-136 0 -226 52l-51 -90zM303 487q0 -110 21 -180l182 238l176 282 q-51 45 -139 45q-58 0 -101 -19t-69.5 -51.5t-42.5 -83t-21.5 -105t-5.5 -126.5zM399 168q51 -51 144 -51q72 0 121 27.5t75.5 81t37.5 120.5t11 158q0 112 -26 186l-193 -256z" />
<glyph unicode="&#xf9;" horiz-adv-x="1120" d="M143 328v661h195v-620q0 -127 46 -178.5t155 -51.5q67 0 137 22.5t125 61.5v8l-17 117v641h193v-989h-158l-16 115h-8q-146 -138 -328 -138q-169 0 -246.5 87t-77.5 264zM303 1358h211l180 -260h-147z" />
<glyph unicode="&#xfa;" horiz-adv-x="1120" d="M143 328v661h195v-620q0 -127 46 -178.5t155 -51.5q67 0 137 22.5t125 61.5v8l-17 117v641h193v-989h-158l-16 115h-8q-146 -138 -328 -138q-169 0 -246.5 87t-77.5 264zM467 1098l180 260h211l-244 -260h-147z" />
<glyph unicode="&#xfb;" horiz-adv-x="1120" d="M143 328v661h195v-620q0 -127 46 -178.5t155 -51.5q67 0 137 22.5t125 61.5v8l-17 117v641h193v-989h-158l-16 115h-8q-146 -138 -328 -138q-169 0 -246.5 87t-77.5 264zM203 1104l235 262h244l236 -262h-209l-150 162l-147 -162h-209z" />
<glyph unicode="&#xfc;" horiz-adv-x="1120" d="M143 328v661h195v-620q0 -127 46 -178.5t155 -51.5q67 0 137 22.5t125 61.5v8l-17 117v641h193v-989h-158l-16 115h-8q-146 -138 -328 -138q-169 0 -246.5 87t-77.5 264zM272 1180v180h193v-180h-193zM659 1180v180h189v-180h-189z" />
<glyph unicode="&#xff;" horiz-adv-x="874" d="M-27 989h205l228 -661l40 -150l41 148l220 663h192l-473 -1358h-195l99 277l67 92h-78zM150 1178v180h192v-180h-192zM537 1178v180h188v-180h-188z" />
<glyph unicode="&#x152;" horiz-adv-x="1449" d="M92 637q0 335 113.5 499t359.5 164q56 0 114.5 -6t88.5 -12l31 -6h559v-158h-445l19 -112v-129l-19 -125h379v-164h-379l19 -139v-156l-19 -133h445v-160h-555q-125 -25 -238 -25q-249 0 -361 163t-112 499zM293 639q0 -257 66 -383.5t212 -126.5q62 0 162 10v998 q-75 8 -153 8q-157 0 -222 -119t-65 -387z" />
<glyph unicode="&#x153;" horiz-adv-x="1636" d="M102 489q0 98 12 174.5t43 144t80.5 111.5t127.5 69.5t182 25.5q223 0 319 -129q99 129 328 129q193 0 285 -91.5t92 -248.5q0 -70 -25.5 -121t-72 -80t-104 -42t-128.5 -13h-297l21 -90q10 -95 68.5 -153t178.5 -58q63 0 135.5 11t114.5 22l41 12v-139q-13 -5 -38 -13 t-103 -21.5t-158 -13.5q-236 0 -340 121q-121 -121 -327 -121q-236 0 -335.5 128.5t-99.5 385.5zM303 487q0 -69 6 -121t22 -100.5t43.5 -80t72.5 -50t106 -18.5q81 0 140 36.5t91 88.5q-26 101 -26 256q0 136 22 223q-67 151 -227 151q-61 0 -106 -19t-72.5 -51.5 t-43.5 -83t-22 -105t-6 -126.5zM948 543h240q104 0 150 30.5t46 108.5q0 84 -44.5 137t-149.5 53q-106 0 -160.5 -58.5t-62.5 -160.5l-2 -24z" />
<glyph unicode="&#x178;" horiz-adv-x="927" d="M-37 1276h215l238 -483l49 -154l45 152l242 485h211l-418 -813l10 -98v-365h-199v365l11 100zM176 1436v180h193v-180h-193zM563 1436v180h189v-180h-189z" />
<glyph unicode="&#x2c6;" horiz-adv-x="862" d="M88 1124l236 262h243l236 -262h-209l-150 162l-147 -162h-209z" />
<glyph unicode="&#x2dc;" horiz-adv-x="948" d="M82 1225q2 7 6 17.5t21.5 38.5t40 49t64 38.5t91.5 17.5q42 0 76.5 -10t58.5 -24t47 -28t53.5 -23.5t65.5 -8.5q29 1 54.5 11t41 24.5t26.5 29t16 24.5l4 10l108 -91q-2 -7 -6.5 -18t-23 -39.5t-41.5 -50t-65 -39.5t-91 -18q-57 0 -103.5 14.5t-71.5 31.5t-59.5 31.5 t-70.5 14.5q-30 0 -54 -9.5t-37 -23t-21.5 -27t-11.5 -23.5l-3 -9z" />
<glyph unicode="&#x2000;" horiz-adv-x="834" />
<glyph unicode="&#x2001;" horiz-adv-x="1669" />
<glyph unicode="&#x2002;" horiz-adv-x="834" />
<glyph unicode="&#x2003;" horiz-adv-x="1669" />
<glyph unicode="&#x2004;" horiz-adv-x="556" />
<glyph unicode="&#x2005;" horiz-adv-x="417" />
<glyph unicode="&#x2006;" horiz-adv-x="278" />
<glyph unicode="&#x2007;" horiz-adv-x="278" />
<glyph unicode="&#x2008;" horiz-adv-x="208" />
<glyph unicode="&#x2009;" horiz-adv-x="333" />
<glyph unicode="&#x200a;" horiz-adv-x="92" />
<glyph unicode="&#x2010;" horiz-adv-x="835" d="M92 455v159h651v-159h-651z" />
<glyph unicode="&#x2011;" horiz-adv-x="835" d="M92 455v159h651v-159h-651z" />
<glyph unicode="&#x2012;" horiz-adv-x="835" d="M92 455v159h651v-159h-651z" />
<glyph unicode="&#x2013;" horiz-adv-x="966" d="M92 477v152h782v-152h-782z" />
<glyph unicode="&#x2014;" horiz-adv-x="1314" d="M92 477v152h1131v-152h-1131z" />
<glyph unicode="&#x2018;" horiz-adv-x="391" d="M84 825v189l176 280h100l-69 -280v-189h-207z" />
<glyph unicode="&#x2019;" horiz-adv-x="391" d="M33 827l69 281v188h207v-188l-178 -281h-98z" />
<glyph unicode="&#x201a;" horiz-adv-x="413" d="M23 -281l69 281v188h207v-188l-178 -281h-98z" />
<glyph unicode="&#x201c;" horiz-adv-x="720" d="M84 827v189l176 280h100l-69 -280v-189h-207zM414 827v189l176 280h100l-69 -280v-189h-207z" />
<glyph unicode="&#x201d;" horiz-adv-x="720" d="M33 829l69 281v188h207v-188l-178 -281h-98zM362 829l70 281v188h207v-188l-178 -281h-99z" />
<glyph unicode="&#x201e;" horiz-adv-x="720" d="M33 -281l69 281v188h207v-188l-178 -281h-98zM362 -281l70 281v188h207v-188l-178 -281h-99z" />
<glyph unicode="&#x2022;" horiz-adv-x="569" d="M102 565q0 89 47 136t136 47q182 0 182 -183q0 -93 -44.5 -137.5t-137.5 -44.5q-87 0 -135 47t-48 135z" />
<glyph unicode="&#x2026;" horiz-adv-x="1282" d="M113 0v188h209v-188h-209zM535 0v188h208v-188h-208zM961 0v188h208v-188h-208z" />
<glyph unicode="&#x202f;" horiz-adv-x="333" />
<glyph unicode="&#x2039;" horiz-adv-x="653" d="M47 496l361 450l165 -31l-260 -342l-71 -75l65 -74l264 -348l-168 -31z" />
<glyph unicode="&#x203a;" horiz-adv-x="659" d="M82 76l268 350l64 72l-66 69l-264 348l168 31l358 -448l-360 -453z" />
<glyph unicode="&#x205f;" horiz-adv-x="417" />
<glyph unicode="&#x20ac;" horiz-adv-x="790" d="M-57 449v147h151v111h-100v149h112q34 232 149.5 338t305.5 106q58 0 108.5 -8t71.5 -16l21 -8v-146q-78 21 -182 21q-119 0 -186 -69.5t-89 -217.5h326v-149h-338v-111h287v-147h-279q20 -161 87.5 -237.5t182.5 -76.5q50 0 100 5.5t75 10.5l24 5v-146q-80 -35 -209 -35 q-197 0 -313 113t-146 361h-159z" />
<glyph unicode="&#x2122;" horiz-adv-x="1579" d="M0 1133v143h797l250 -451l231 451h195l2 -639h-175l11 418l-37 -92l-168 -306h-127l-184 306l-33 94l8 -420h-174v496h-94l-107 6l15 -115v-387h-185v387l17 115l-115 -6h-127z" />
<glyph unicode="&#x25fc;" horiz-adv-x="993" d="M0 0v993h993v-993h-993z" />
</font>
</defs>
</svg>
